<svg width="24" height="24" viewBox="0 0 24 24" fill="none" xmlns="http://www.w3.org/2000/svg">
<path d="M2.22762 21.569L22.1108 21.569" stroke="#7F6269" stroke-width="2.475" stroke-linecap="round" stroke-linejoin="round"/>
<path d="M3.6882 13.6013C3.85957 15.981 5.88551 17.8858 8.26501 18.0601C9.01516 18.115 9.77642 18.1522 10.5469 18.1522C11.3173 18.1522 12.0786 18.115 12.8287 18.0601C15.2082 17.8858 17.2342 15.981 17.4055 13.6013C17.4364 13.1729 17.455 12.7406 17.455 12.3048C17.455 10.9258 17.4756 9.58175 17.4133 8.28794C17.375 7.49358 16.7347 6.87417 15.9409 6.82631C12.3798 6.61161 8.71399 6.61161 5.15285 6.82631C4.35901 6.87417 3.71874 7.49358 3.68048 8.28794C3.61816 9.58175 3.63876 10.9258 3.63876 12.3048C3.63876 12.7406 3.65736 13.1729 3.6882 13.6013Z" fill="#FFC5D3" stroke="#7F6269" stroke-width="2.475"/>
<path d="M17.418 8.40756C17.7097 8.41564 18.0128 8.42926 18.3207 8.44632C20.0485 8.54208 21.6397 9.87972 21.6397 11.6102V11.6102V11.6102C21.6397 13.3407 20.0489 14.6827 18.321 14.7773C17.9701 14.7965 17.6221 14.8109 17.2838 14.8173" stroke="#7F6269" stroke-width="2.475"/>
<path d="M10.4043 3.24846L10.4043 1.32077" stroke="#7F6269" stroke-width="2.475" stroke-linecap="round" stroke-linejoin="round"/>
<path d="M6.22168 3.24846L6.22168 1.32077" stroke="#7F6269" stroke-width="2.475" stroke-linecap="round" stroke-linejoin="round"/>
<path d="M14.587 3.24846L14.587 1.32077" stroke="#7F6269" stroke-width="2.475" stroke-linecap="round" stroke-linejoin="round"/>
</svg>
